<?xml version="1.0" encoding="UTF-8"?>
<svg id="Capa_1" data-name="Capa 1" xmlns="http://www.w3.org/2000/svg" viewBox="0 0 1920 1080">
  <defs>
    <style>
      .cls-1 {
        fill: #000;
        stroke-width: 0px;
      }
    </style>
  </defs>
  <path class="cls-1" d="M339.48,335.83c26.56,0,48.39,3.92,65.5,11.77,17.1,7.85,32.3,17.01,45.58,27.47,8.05,6.04,14.19,6.74,18.41,2.11,3.8-4.15,6.54-13.44,8.23-27.86.34-2.87,2.75-5.05,5.64-5.05h2.81c3.24,0,5.82,2.69,5.67,5.93-.66,14.13-1.17,30.87-1.51,50.22-.38,20.97-.58,48.25-.6,81.85,0,3.14-2.54,5.69-5.68,5.69h-3.25c-2.84,0-5.23-2.1-5.63-4.92-2.23-15.96-4.62-29.51-7.18-40.66-2.82-12.27-6.74-22.84-11.77-31.7-5.01-8.8-11.91-17.21-20.69-25.23-.09-.08-.18-.17-.26-.26-10.84-12.01-23.78-20.91-38.82-26.73-32.07-12.6-74.22-12.91-102.03,7.85-15.5,11.07-28.37,26.17-38.64,45.28-10.26,19.12-17.91,41.36-22.94,66.71-10.08,49.86-10.25,113.44.6,162.71,5.43,25.16,13.48,47.09,24.15,65.81,10.66,18.72,23.94,33.31,39.85,43.77,28.88,19.33,67.52,19.61,101.12,7.24,15.62-5.6,28.45-14.2,38.49-25.79.1-.12.21-.23.32-.33,13.19-12.04,22.19-26.38,27-43.01,4.53-15.66,8.17-36.21,10.94-61.62.31-2.89,2.74-5.09,5.65-5.09h3.1c3.14,0,5.68,2.55,5.68,5.69.02,35.22.22,63.81.6,85.77.35,20.32.86,37.76,1.52,52.34.15,3.24-2.43,5.92-5.67,5.92h-2.81c-2.89,0-5.31-2.19-5.64-5.06-1.65-14.38-4.19-23.56-7.63-27.54-3.83-4.42-10.17-3.82-19.02,1.81-14.89,10.47-30.7,19.62-47.39,27.47-48.45,21.83-128.04,11.83-172.36-14.19-31-17.3-55.04-42.26-72.15-74.86-34.41-63-34.33-172.27.9-236.06,17.71-33.81,42.05-60.17,73.05-79.09,30.99-18.91,66.61-28.37,106.86-28.37Z"/>
  <path class="cls-1" d="M831.45,748.85c-1.87-2.9-5.81-3.64-8.59-1.61-2.5,1.82-4.84,3.33-7.04,4.56-7.22,4.16-18.65,4.86-22.95-3.33-2.41-4.23-3.61-11.36-3.61-21.44v-165.42c0-19.71-1.42-36.43-4.23-50.1-2.83-13.69-9.07-25.17-18.72-34.42-9.66-9.66-21.34-16.38-35.01-20.23-28.28-8.1-69.64-7.27-98.42.31-15.68,4.04-28.57,9.47-38.62,16.31-10.08,6.02-17.92,12.77-23.56,20.21-11.76,15.16-11.33,42.57,1.82,57.67,12.65,17.09,46.25,16.01,61.29,2.1,15.86-12.37,15.82-41.93,3.61-57.06-4.06-5.29-9.23-9.44-15.51-12.42-4.13-1.98-4.82-7.7-1.06-10.32,4.44-3.09,9.44-5.38,15.06-6.85,17.85-4.72,39.8-5.78,54.65,2.71,7.44,4.23,13.08,10.48,16.9,18.72,3.82,8.26,5.74,18.82,5.74,31.71v44.08c0,9.25-4.04,16.69-12.09,22.33-8.05,5.64-18.32,10.55-30.78,14.78-12.49,4.23-25.76,8.66-39.85,13.29-14.09,4.63-27.46,10.27-40.13,16.9s-23.07,15.49-31.09,26.56c-15.32,20.11-15.77,57.98-3.02,80.9,6.02,11.47,15.09,20.52,27.15,27.17,12.09,6.63,26.77,9.96,44.08,9.96,19.71,0,36.62-4.44,50.71-13.29,10.15-6.37,19.15-14.64,27.01-24.76,3.09-4.01,9.42-2.57,10.6,2.34,1.04,4.39,2.5,8.45,4.37,12.16,3.82,7.65,9.84,13.5,18.11,17.52,16.22,8.36,51.39,7.74,68.51,0,7.98-3.31,15.65-7.58,23.07-12.82,1.68-1.18,2.6-3.07,2.6-4.98,0-1.13-.31-2.27-.97-3.26ZM635.95,523.91c0,18.25-14.8,33.05-33.05,33.05-1.79,0-3.52-.14-5.22-.42,10.13-7.29,16.71-19.19,16.71-32.63s-6.59-25.33-16.71-32.63c1.7-.28,3.42-.42,5.22-.42,18.25,0,33.05,14.8,33.05,33.05ZM713.2,708.88c0,1.2-.35,2.41-1.04,3.4-6.56,9.7-13.79,17.05-21.6,22-8.26,5.24-17.21,7.86-26.87,7.86-12.49,0-22.55-4.13-30.19-12.39-15.01-14.45-14.16-53.38-3.92-70.64,5.03-9.04,11.26-16.69,18.72-22.92,7.44-6.26,15.39-11.78,23.84-16.62,8.45-4.82,16.38-9.66,23.84-14.47,2.67-1.75,5.12-3.56,7.37-5.45,3.87-3.28,9.84-.42,9.84,4.65v104.58Z"/>
  <path class="cls-1" d="M958.32,300.68c3.72-.8,7.22,2.03,7.22,5.84v409.06c0,16.91,3.11,28.38,9.36,34.41,5.41,5.23,14.07,8.2,25.98,8.9,3.19.19,5.71,2.77,5.71,5.97v.57c0,3.42-2.86,6.14-6.27,5.97-6.81-.34-15.69-.74-26.63-1.19-29.9-1.22-60.08-1.19-90.56,0-11.74.46-21.22.86-28.45,1.2-3.41.16-6.26-2.56-6.26-5.97v-.59c0-3.2,2.52-5.78,5.71-5.97,11.91-.7,20.57-3.66,25.98-8.9,6.24-6.04,9.36-17.51,9.36-34.41v-344.13c0-18.11-2.82-31.49-8.45-40.15-4.95-7.59-13.93-11.86-26.94-12.79-3.17-.23-5.66-2.79-5.66-5.97v-.38c0-3.51,3-6.23,6.5-5.96,24.76,1.95,50.54,1.57,73.8-.87,10.5-1.11,20.36-2.66,29.6-4.66Z"/>
  <path class="cls-1" d="M1144.87,454.63c3.72-.8,7.22,2.03,7.22,5.84v255.1c0,16.91,3.11,28.38,9.36,34.41,5.4,5.23,14.07,8.2,25.98,8.9,3.19.19,5.71,2.77,5.71,5.97v.57c0,3.42-2.86,6.14-6.27,5.98-6.85-.34-15.83-.74-26.94-1.19-30-1.21-60.18-1.2-90.56,0-11.57.46-20.96.86-28.15,1.2-3.41.16-6.26-2.56-6.26-5.98v-.58c0-3.2,2.52-5.78,5.71-5.97,11.91-.7,20.57-3.66,25.98-8.9,6.23-6.04,9.36-17.51,9.36-34.41v-189.57c0-18.51-2.93-32.09-8.76-40.75-5.11-7.57-13.99-11.83-26.64-12.78-3.17-.24-5.66-2.8-5.66-5.97v-.39c0-3.5,2.99-6.22,6.49-5.95,24.75,1.95,49.84,1.58,73.51-.87,10.66-1.11,20.63-2.67,29.91-4.66Z"/>
  <path class="cls-1" d="M1421.35,451.14c12.47,0,22.84,2.62,31.09,7.85,8.24,5.24,14.38,11.88,18.41,19.92,9.5,18.29,7.92,43.8-5.74,58.56-13.54,16.97-45.3,17.15-60.68,3.62-14.69-11.14-14.47-38.2-3.92-51.92,2.33-3.16,4.8-6.03,7.43-8.59,4.05-3.95.76-10.91-4.85-10.19-.16.02-.31.04-.47.06-9.66.81-18.52,4.23-26.57,10.26-8.06,6.04-14.89,13.49-20.53,22.34-10.7,16.63-17.53,38.12-17.51,57.35v149.12c0,19.72,5.03,32.9,15.09,39.54,9.03,5.96,21.8,9.25,38.3,9.86,3.21.12,5.77,2.75,5.77,5.97v.56c0,3.4-2.83,6.12-6.23,5.98-40.79-1.75-93.31-3.1-135.35-1.24-11.74.46-21.22.86-28.45,1.2-3.41.16-6.26-2.56-6.26-5.98v-.58c0-3.2,2.52-5.78,5.71-5.97,11.91-.7,20.57-3.66,25.98-8.9,6.23-6.04,9.36-17.51,9.36-34.41v-190.17c0-18.11-2.93-31.49-8.76-40.15-5.11-7.57-13.99-11.83-26.64-12.78-3.17-.24-5.65-2.8-5.65-5.97v-.39c0-3.5,2.99-6.22,6.49-5.95,24.75,1.95,49.84,1.58,73.51-.87,10.66-1.11,20.63-2.67,29.91-4.66,3.72-.8,7.22,2.03,7.22,5.84v31.56c0,5.89,7.7,8.29,10.93,3.36,2.49-3.79,5.19-7.48,8.09-11.05,7.85-9.66,17.3-17.6,28.37-23.85,11.07-6.24,23.04-9.36,35.92-9.36Z"/>
  <path class="cls-1" d="M1581.94,775.95c-17.31,0-32-3.32-44.07-9.96-12.08-6.64-21.13-15.7-27.17-27.17-12.75-22.92-12.3-60.79,3.02-80.9,8.05-11.07,18.41-19.92,31.09-26.56,12.68-6.64,26.05-12.27,40.15-16.9,14.08-4.62,27.37-9.06,39.85-13.28,12.47-4.23,22.73-9.15,30.79-14.79,8.05-5.63,12.07-13.07,12.07-22.34v-44.07c0-12.88-1.91-23.44-5.73-31.7-3.83-8.25-9.46-14.49-16.91-18.72-14.85-8.5-36.79-7.45-54.64-2.72-5.42,1.41-10.28,3.58-14.59,6.51-4,2.71-3.59,8.64.77,10.73,6.2,2.98,11.31,7.09,15.33,12.35,12.2,15.13,12.24,44.68-3.62,57.05-15.03,13.91-48.63,14.98-61.28-2.11-13.16-15.1-13.58-42.5-1.81-57.66,5.63-7.44,13.48-14.19,23.54-20.22,10.06-6.84,22.94-12.27,38.64-16.3,28.76-7.59,70.12-8.4,98.41-.3,13.68,3.83,25.36,10.57,35.02,20.22,9.66,9.26,15.89,20.73,18.71,34.41,2.81,13.69,4.23,30.39,4.23,50.11v165.42c0,10.07,1.21,17.21,3.62,21.43,4.28,8.19,15.71,7.48,22.94,3.32,2.17-1.2,4.48-2.7,6.94-4.48,2.85-2.06,6.85-1.32,8.76,1.63h0c1.75,2.7,1.14,6.33-1.44,8.25-24.96,18.59-64.16,24.9-91.83,12.71-8.25-4.02-14.29-9.86-18.11-17.51-1.83-3.65-3.27-7.63-4.32-11.93-1.22-5.01-7.63-6.46-10.79-2.38-7.82,10.05-16.77,18.25-26.85,24.58-14.09,8.86-31,13.28-50.71,13.28ZM1618.17,742.14c9.66,0,18.61-2.61,26.87-7.85,7.82-4.96,15.02-12.28,21.59-21.97.69-1.02,1.05-2.24,1.05-3.47v-104.31c0-5.18-6.05-8.09-10.02-4.75-2.19,1.84-4.58,3.6-7.19,5.3-15.18,10.13-33.54,18.79-47.69,31.09-7.45,6.24-13.69,13.89-18.72,22.94-10.25,17.25-11.1,56.18,3.92,70.64,7.64,8.25,17.71,12.38,30.19,12.38Z"/>
  <path class="cls-1" d="M1156.94,362.2c0,34.54-32.77,62.56-73.19,62.56-3.95,0-7.8-.27-11.55-.79,22.4-13.82,37.01-36.34,37.01-61.77s-14.61-47.95-37.01-61.77c3.75-.52,7.6-.79,11.55-.79,40.41,0,73.19,28.02,73.19,62.56Z"/>
</svg>